/* XPM */
static char *x_icon[] = {
/* columns rows colors chars-per-pixel */
"32 32 222 2 ",
"   c #413F3F",
".  c #423F3F",
"X  c #433F3F",
"o  c #42403F",
"O  c #3F4143",
"+  c #3B4447",
"@  c #1F5C6B",
"#  c gray25",
"$  c #404141",
"%  c #414141",
"&  c #424040",
"*  c #434140",
"=  c #424141",
"-  c gray26",
";  c #434343",
":  c gray27",
">  c #464646",
",  c #4B4747",
"<  c #494949",
"1  c gray29",
"2  c #4B4B4B",
"3  c gray30",
"4  c #514D4D",
"5  c #52504F",
"6  c #505050",
"7  c #515151",
"8  c #535353",
"9  c gray33",
"0  c #555555",
"q  c gray34",
"w  c gray35",
"e  c #5A5A5A",
"r  c gray36",
"t  c #5F5F5F",
"y  c #615E5C",
"u  c #606060",
"i  c gray39",
"p  c #646261",
"a  c #646463",
"s  c #646464",
"d  c #656565",
"f  c gray40",
"g  c #686868",
"h  c #6A6A6A",
"j  c gray42",
"k  c #6C6C6C",
"l  c #6D6D6D",
"z  c #72706E",
"x  c #72716F",
"c  c #737070",
"v  c #737171",
"b  c gray45",
"n  c #747373",
"m  c #777473",
"M  c #747474",
"N  c gray46",
"B  c #767676",
"V  c #797675",
"C  c #797979",
"Z  c gray48",
"A  c #7B7B7B",
"S  c #7C7C7C",
"D  c gray49",
"F  c #7F7C7C",
"G  c gray50",
"H  c #807E7D",
"J  c #82807E",
"K  c #007695",
"L  c #007697",
"P  c #007897",
"I  c #027897",
"U  c #007698",
"Y  c #007798",
"T  c #007699",
"R  c #027798",
"E  c #007898",
"W  c #037998",
"Q  c #037899",
"!  c #03799B",
"~  c #037A9A",
"^  c #067999",
"/  c #047A99",
"(  c #067A99",
")  c #067B99",
"_  c #04799A",
"`  c #047A9B",
"'  c #067B9A",
"]  c #067A9B",
"[  c #077B9B",
"{  c #087B9A",
"}  c #087D9A",
"|  c #097D9A",
" . c #0B7C9B",
".. c #0B7D9B",
"X. c #0B7E9D",
"o. c #0A7E9E",
"O. c #0C7E9D",
"+. c #0D7F9D",
"@. c #0F7F9D",
"#. c #0E7F9E",
"$. c #107E9D",
"%. c #107F9E",
"&. c #0F809E",
"*. c #10809E",
"=. c #11819E",
"-. c #10819F",
";. c #11819F",
":. c #12819F",
">. c #15809C",
",. c #15829F",
"<. c #1684A0",
"1. c #1784A1",
"2. c #1884A0",
"3. c #1884A1",
"4. c #1984A1",
"5. c #1885A2",
"6. c #1B85A3",
"7. c #1B86A3",
"8. c #1C86A3",
"9. c #1C87A3",
"0. c #1D87A3",
"q. c #1E87A4",
"w. c #1E88A3",
"e. c #1E88A4",
"r. c #1D89A7",
"t. c #2089A4",
"y. c #2089A5",
"u. c #2189A5",
"i. c #2288A5",
"p. c #238AA6",
"a. c #248AA6",
"s. c #258BA6",
"d. c #258CA7",
"f. c #278CA7",
"g. c #278CA8",
"h. c #288DA8",
"j. c #298DA8",
"k. c #2A8DA8",
"l. c #298EA8",
"z. c #2B8EA9",
"x. c #2C8FA9",
"c. c #2D8FAA",
"v. c #2F90A9",
"b. c #2E90AA",
"n. c #2F90AA",
"m. c #2F90AB",
"M. c #3091AB",
"N. c #3192AB",
"B. c #3192AC",
"V. c #3292AC",
"C. c #3393AC",
"Z. c #3393AD",
"A. c #3493AC",
"S. c #3494AD",
"D. c #3594AD",
"F. c #3694AD",
"G. c #3695AE",
"H. c #3795AE",
"J. c #3895AE",
"K. c #3996AE",
"L. c #3B97AF",
"P. c #3C97AF",
"I. c #3796B0",
"U. c #3C97B0",
"Y. c #3C98B0",
"T. c #3D98B0",
"R. c #3C98B1",
"E. c #3E98B1",
"W. c #3E99B1",
"Q. c #3F99B1",
"!. c #7F8080",
"~. c #4099B1",
"^. c #429AB2",
"/. c #429BB2",
"(. c #429BB3",
"). c #439BB3",
"_. c #459DB3",
"`. c #449DB4",
"'. c #469DB4",
"]. c #479EB4",
"[. c #479EB5",
"{. c #489EB4",
"}. c #489EB5",
"|. c #499EB5",
" X c #499FB5",
".X c #4A9FB5",
"XX c #4B9FB6",
"oX c #4BA0B7",
"OX c #4CA0B6",
"+X c #4CA0B7",
"@X c #4DA1B7",
"#X c #4FA1B7",
"$X c #4FA2B8",
"%X c #51A3B9",
"&X c #52A3B9",
"*X c #54A4BA",
"=X c #56A5BB",
"-X c #56A6BA",
";X c #56A6BB",
":X c #57A6BB",
">X c #58A6BB",
",X c #58A7BB",
"<X c #58A7BC",
"1X c #59A7BC",
"2X c #5AA8BC",
"3X c #5CA8BD",
"4X c #5DA9BD",
"5X c #5EAABE",
"6X c #5FAABE",
"7X c #60ABBF",
"8X c #808080",
"9X c #818181",
"0X c #838181",
"qX c #838383",
"wX c gray52",
"eX c #868686",
"rX c gray53",
"tX c #8B8787",
"yX c #898887",
"uX c #878888",
"iX c #888888",
"pX c None",
/* pixels */
"pXpXpXpXpXpXpXpXpXpXpXpXpXpXpXpXpXpXpXpXpXpXpXpXpXpXpXpXpXpXpXpX",
"pXpXpXpXpXpXpXpXpXpXpXpXpXpXpXpXpXpXpXpXpXpXpXpXpXpXpXpXpXpXpXpX",
"pXpXpXpXpXpXpXpXpXpXpXpXpXpXpXpXpXpXpXpXpXpXpX# % o = + @ >.~ P ",
"pXpXpX% % % # % # ; > pXpXpXpXpXpXpXpX7 1 > - & . pX3.I.oXp.pXpX",
"pXpXpXpXpX% % % : 2 pXpXpXpXpXpXpXu r w 9 5 , pX6.`.7X}.$.pXpXpX",
"pXpXpXpXpXpX% : 3 8 e pXpXpXpXpXj h g a y pX+.R.6X5XB.pXpXpXpXpX",
"pXpXpXpXpXpX: 3 0 r i pXpXpXN N N M v pXpXa.1X5X:Xq.pXpXpXpXpXpX",
"pXpXpXpXpXpXpX9 r d k b pXS G 8X8XH pX] U.6X4XOX%.pXpXpXpXpXpXpX",
"pXpXpXpXpXpXpXpXs l M A 9XeXiXuXtXpX@.#X4X3X~.{ pXpXpXpXpXpXpXpX",
"pXpXpXpXpXpXpXpXj M S qXrXwX8XJ pX4.:X2X2XF.R pXpXpXpXpXpXpXpXpX",
"pXpXpXpXpXpXpXpXpXZ qXiX8XC V pXi.1X>X<Xn.P pXpXpXpXpXpXpXpXpXpX",
"pXpXpXpXpXpXpXpXpX9XrX8XB c pXg.,X;X=Xk.K pXpXpXpXpXpXpXpXpXpXpX",
"pXpXpXpXpXpXpXpXA wXwXC z pXf.-X*X*Xc.U pXpXpXpXpXpXpXpXpXpXpXpX",
"pXpXpXpXpXpXpXM D rX!.m pXd.*X&X&XZ.L pXpXpXpXpXpXpXpXpXpXpXpXpX",
"pXpXpXpXpXpXpXN 8XiXF pX6.%X$X$XW.Q pXpXpXpXpXpXpXpXpXpXpXpXpXpX",
"pXpXpXpXpXpXj B 9XyXpX&.+X@X+X}. .pXpXpXpXpXpXpXpXpXpXpXpXpXpXpX",
"pXpXpXpXpXt h N 0XpX' /.XX.X|.{.=.pXpXpXpXpXpXpXpXpXpXpXpXpXpXpX",
"pXpXpXpXpXr g n pXU A. X X[.'._.D.pXpXpXpXpXpXpXpXpXpXpXpXpXpXpX",
"pXpXpXpX6 e f x pXt.].W.,.N.).^.(.2.pXpXpXpXpXpXpXpXpXpXpXpXpXpX",
"pXpXpXpX3 q p pX#.).P.| pX^ K.Q.E.H.! pXpXpXpXpXpXpXpXpXpXpXpXpX",
"pXpXpXpX< 9 pX_ J.U...pXpXpX&.Y.L.L.w.pXpXpXpXpXpXpXpXpXpXpXpXpX",
"pXpXpX% : 4 Y s.T.&.pXpXpXpXT p.J.G.S.} pXpXpXpXpXpXpXpXpXpXpXpX",
"pXpXpX% * pX*.Y.<.pXpXpXpXpXpX( C.C.V.u.pXpXpXpXpXpXpXpXpXpXpXpX",
"pXpXpX% # ` V.e.pXpXpXpXpXpXpXpX8.M.m.m.O.pXpXpXpXpXpXpXpXpXpXpX",
"pXpXpX  pX0.l.I pXpXpXpXpXpXpXpX[ c.x.z.p.pXpXpXpXpXpXpXpXpXpXpX",
"pXpX% O o.b.) pXpXpXpXpXpXpXpXpXpXy.j.h.h.:.pXpXpXpXpXpXpXpXpXpX",
"pXpXX pXp.*.pXpXpXpXpXpXpXpXpXpXpX-.0.7.5.1./ E pXpXpXpXpXpXpXpX",
"pXpX$ ;.9.pXpXpXpXpXpXpXpXpXpXpXpXpXpXpXpXpXpXpXpXpXpXpXpXpXpXpX",
"pXpXpXr.W pXpXpXpXpXpXpXpXpXpXpXpXpXpXpXpXpXpXpXpXpXpXpXpXpXpXpX",
"pXpXpXX.pXpXpXpXpXpXpXpXpXpXpXpXpXpXpXpXpXpXpXpXpXpXpXpXpXpXpXpX",
"pXpXv.pXpXpXpXpXpXpXpXpXpXpXpXpXpXpXpXpXpXpXpXpXpXpXpXpXpXpXpXpX",
"pXpXpXpXpXpXpXpXpXpXpXpXpXpXpXpXpXpXpXpXpXpXpXpXpXpXpXpXpXpXpXpX"
};
